<mxfile host="Electron" modified="2024-04-11T14:43:11.887Z" agent="Mozilla/5.0 (Windows NT 10.0; Win64; x64) AppleWebKit/537.36 (KHTML, like Gecko) draw.io/22.1.18 Chrome/120.0.6099.199 Electron/28.1.2 Safari/537.36" etag="sPcsiBnGf5ID0osS5Pya" version="22.1.18" type="device">
  <diagram name="Page-1" id="VxXOwJHOqu7lgPkNkDcb">
    <mxGraphModel dx="1434" dy="836" grid="1" gridSize="10" guides="1" tooltips="1" connect="1" arrows="1" fold="1" page="1" pageScale="1" pageWidth="1169" pageHeight="827" math="0" shadow="0">
      <root>
        <mxCell id="0" />
        <mxCell id="1" parent="0" />
        <mxCell id="AnB6w5NlbLwUmc0SfIOT-50" value="" style="verticalLabelPosition=bottom;verticalAlign=top;html=1;shape=mxgraph.basic.rect;fillColor2=none;strokeWidth=1;size=20;indent=5;fillColor=none;" vertex="1" parent="1">
          <mxGeometry x="250" y="510" width="480" height="370" as="geometry" />
        </mxCell>
        <mxCell id="AnB6w5NlbLwUmc0SfIOT-49" value="" style="verticalLabelPosition=bottom;verticalAlign=top;html=1;shape=mxgraph.basic.rect;fillColor2=none;strokeWidth=1;size=20;indent=5;fillColor=none;" vertex="1" parent="1">
          <mxGeometry x="250" y="140" width="480" height="370" as="geometry" />
        </mxCell>
        <mxCell id="AnB6w5NlbLwUmc0SfIOT-1" value="LOAD" style="rounded=0;whiteSpace=wrap;html=1;" vertex="1" parent="1">
          <mxGeometry x="520" y="360" width="40" height="80" as="geometry" />
        </mxCell>
        <mxCell id="AnB6w5NlbLwUmc0SfIOT-2" value="OI-Module" style="rounded=0;whiteSpace=wrap;html=1;fillColor=#F3AA2D;fontColor=#FFFFFF;strokeColor=#608FA0;strokeWidth=3;" vertex="1" parent="1">
          <mxGeometry x="280" y="260" width="120" height="30" as="geometry" />
        </mxCell>
        <mxCell id="AnB6w5NlbLwUmc0SfIOT-4" value="" style="rounded=0;whiteSpace=wrap;html=1;fillColor=#608FA0;strokeColor=#608FA0;fontColor=#ffffff;strokeWidth=3;" vertex="1" parent="1">
          <mxGeometry x="280" y="290" width="120" height="80" as="geometry" />
        </mxCell>
        <mxCell id="AnB6w5NlbLwUmc0SfIOT-6" value="" style="edgeStyle=orthogonalEdgeStyle;rounded=0;orthogonalLoop=1;jettySize=auto;html=1;endArrow=none;endFill=0;strokeWidth=3;" edge="1" parent="1" source="AnB6w5NlbLwUmc0SfIOT-5" target="AnB6w5NlbLwUmc0SfIOT-1">
          <mxGeometry relative="1" as="geometry" />
        </mxCell>
        <mxCell id="AnB6w5NlbLwUmc0SfIOT-5" value="" style="pointerEvents=1;verticalLabelPosition=bottom;shadow=0;dashed=0;align=center;html=1;verticalAlign=top;shape=mxgraph.electrical.signal_sources.signal_ground;" vertex="1" parent="1">
          <mxGeometry x="517.5" y="460" width="45" height="30" as="geometry" />
        </mxCell>
        <mxCell id="AnB6w5NlbLwUmc0SfIOT-10" style="edgeStyle=orthogonalEdgeStyle;rounded=1;orthogonalLoop=1;jettySize=auto;html=1;exitX=1;exitY=0.5;exitDx=0;exitDy=0;entryX=0.5;entryY=0;entryDx=0;entryDy=0;endArrow=none;endFill=0;fillColor=#f8cecc;strokeColor=#b85450;strokeWidth=3;curved=0;" edge="1" parent="1" source="AnB6w5NlbLwUmc0SfIOT-7" target="AnB6w5NlbLwUmc0SfIOT-1">
          <mxGeometry relative="1" as="geometry" />
        </mxCell>
        <mxCell id="AnB6w5NlbLwUmc0SfIOT-7" value="DOUT_X" style="rounded=0;whiteSpace=wrap;html=1;strokeColor=#F3AA2D;strokeWidth=3;fillColor=none;fontColor=#FFFFFF;" vertex="1" parent="1">
          <mxGeometry x="340" y="330" width="60" height="20" as="geometry" />
        </mxCell>
        <mxCell id="AnB6w5NlbLwUmc0SfIOT-8" value="VIN" style="rounded=0;whiteSpace=wrap;html=1;strokeColor=#F3AA2D;strokeWidth=3;fillColor=none;fontColor=#FFFFFF;" vertex="1" parent="1">
          <mxGeometry x="340" y="310" width="60" height="20" as="geometry" />
        </mxCell>
        <mxCell id="AnB6w5NlbLwUmc0SfIOT-11" style="edgeStyle=orthogonalEdgeStyle;rounded=1;orthogonalLoop=1;jettySize=auto;html=1;entryX=0.5;entryY=0;entryDx=0;entryDy=0;entryPerimeter=0;endArrow=none;endFill=0;strokeWidth=3;curved=0;" edge="1" parent="1" source="AnB6w5NlbLwUmc0SfIOT-9" target="AnB6w5NlbLwUmc0SfIOT-12">
          <mxGeometry relative="1" as="geometry">
            <mxPoint x="420" y="400.8333333333334" as="targetPoint" />
            <Array as="points">
              <mxPoint x="423" y="360" />
              <mxPoint x="423" y="379" />
              <mxPoint x="423" y="379" />
            </Array>
          </mxGeometry>
        </mxCell>
        <mxCell id="AnB6w5NlbLwUmc0SfIOT-9" value="GND" style="rounded=0;whiteSpace=wrap;html=1;strokeColor=#F3AA2D;strokeWidth=3;fillColor=none;fontColor=#FFFFFF;" vertex="1" parent="1">
          <mxGeometry x="340" y="350" width="60" height="20" as="geometry" />
        </mxCell>
        <mxCell id="AnB6w5NlbLwUmc0SfIOT-12" value="" style="pointerEvents=1;verticalLabelPosition=bottom;shadow=0;dashed=0;align=center;html=1;verticalAlign=top;shape=mxgraph.electrical.signal_sources.signal_ground;" vertex="1" parent="1">
          <mxGeometry x="400" y="460" width="45" height="30" as="geometry" />
        </mxCell>
        <mxCell id="AnB6w5NlbLwUmc0SfIOT-18" style="edgeStyle=orthogonalEdgeStyle;rounded=1;orthogonalLoop=1;jettySize=auto;html=1;exitX=0.58;exitY=0.135;exitDx=0;exitDy=0;exitPerimeter=0;entryX=1;entryY=0.5;entryDx=0;entryDy=0;endArrow=none;endFill=0;fillColor=#f8cecc;strokeColor=#b85450;strokeWidth=3;curved=0;" edge="1" parent="1" source="AnB6w5NlbLwUmc0SfIOT-16" target="AnB6w5NlbLwUmc0SfIOT-8">
          <mxGeometry relative="1" as="geometry">
            <Array as="points">
              <mxPoint x="671" y="260" />
              <mxPoint x="440" y="260" />
              <mxPoint x="440" y="320" />
            </Array>
          </mxGeometry>
        </mxCell>
        <mxCell id="AnB6w5NlbLwUmc0SfIOT-16" value="" style="pointerEvents=1;verticalLabelPosition=bottom;shadow=0;dashed=0;align=center;html=1;verticalAlign=top;shape=mxgraph.electrical.signal_sources.dc_source_1;" vertex="1" parent="1">
          <mxGeometry x="630" y="275" width="70" height="75" as="geometry" />
        </mxCell>
        <mxCell id="AnB6w5NlbLwUmc0SfIOT-17" value="V" style="text;html=1;align=center;verticalAlign=middle;resizable=0;points=[];autosize=1;strokeColor=none;fillColor=none;fontStyle=1;fontSize=30;" vertex="1" parent="1">
          <mxGeometry x="650" y="290" width="40" height="50" as="geometry" />
        </mxCell>
        <mxCell id="AnB6w5NlbLwUmc0SfIOT-20" value="" style="edgeStyle=orthogonalEdgeStyle;rounded=0;orthogonalLoop=1;jettySize=auto;html=1;endArrow=none;endFill=0;entryX=0.58;entryY=0.935;entryDx=0;entryDy=0;entryPerimeter=0;strokeWidth=3;" edge="1" parent="1" source="AnB6w5NlbLwUmc0SfIOT-19" target="AnB6w5NlbLwUmc0SfIOT-16">
          <mxGeometry relative="1" as="geometry" />
        </mxCell>
        <mxCell id="AnB6w5NlbLwUmc0SfIOT-19" value="" style="pointerEvents=1;verticalLabelPosition=bottom;shadow=0;dashed=0;align=center;html=1;verticalAlign=top;shape=mxgraph.electrical.signal_sources.signal_ground;" vertex="1" parent="1">
          <mxGeometry x="647.5" y="460" width="45" height="30" as="geometry" />
        </mxCell>
        <mxCell id="AnB6w5NlbLwUmc0SfIOT-45" style="edgeStyle=orthogonalEdgeStyle;rounded=0;orthogonalLoop=1;jettySize=auto;html=1;exitX=0.5;exitY=0;exitDx=0;exitDy=0;fillColor=#e51400;strokeColor=#B85450;strokeWidth=3;endArrow=none;endFill=0;" edge="1" parent="1" source="AnB6w5NlbLwUmc0SfIOT-21">
          <mxGeometry relative="1" as="geometry">
            <mxPoint x="539.8571428571429" y="640" as="targetPoint" />
          </mxGeometry>
        </mxCell>
        <mxCell id="AnB6w5NlbLwUmc0SfIOT-21" value="LOAD" style="rounded=0;whiteSpace=wrap;html=1;" vertex="1" parent="1">
          <mxGeometry x="520" y="660" width="40" height="80" as="geometry" />
        </mxCell>
        <mxCell id="AnB6w5NlbLwUmc0SfIOT-22" value="OI-Module" style="rounded=0;whiteSpace=wrap;html=1;fillColor=#F3AA2D;fontColor=#FFFFFF;strokeColor=#608FA0;strokeWidth=3;" vertex="1" parent="1">
          <mxGeometry x="280" y="680" width="120" height="30" as="geometry" />
        </mxCell>
        <mxCell id="AnB6w5NlbLwUmc0SfIOT-23" value="" style="rounded=0;whiteSpace=wrap;html=1;fillColor=#608FA0;strokeColor=#608FA0;fontColor=#ffffff;strokeWidth=3;" vertex="1" parent="1">
          <mxGeometry x="280" y="710" width="120" height="80" as="geometry" />
        </mxCell>
        <mxCell id="AnB6w5NlbLwUmc0SfIOT-24" value="" style="edgeStyle=orthogonalEdgeStyle;rounded=1;orthogonalLoop=1;jettySize=auto;html=1;endArrow=none;endFill=0;strokeWidth=3;exitX=1;exitY=0.5;exitDx=0;exitDy=0;curved=0;" edge="1" parent="1" source="AnB6w5NlbLwUmc0SfIOT-27" target="AnB6w5NlbLwUmc0SfIOT-21">
          <mxGeometry relative="1" as="geometry">
            <Array as="points">
              <mxPoint x="540" y="760" />
            </Array>
          </mxGeometry>
        </mxCell>
        <mxCell id="AnB6w5NlbLwUmc0SfIOT-27" value="DOUT_X" style="rounded=0;whiteSpace=wrap;html=1;strokeColor=#F3AA2D;strokeWidth=3;fillColor=none;fontColor=#FFFFFF;" vertex="1" parent="1">
          <mxGeometry x="340" y="750" width="60" height="20" as="geometry" />
        </mxCell>
        <mxCell id="AnB6w5NlbLwUmc0SfIOT-28" value="VIN" style="rounded=0;whiteSpace=wrap;html=1;strokeColor=#F3AA2D;strokeWidth=3;fillColor=none;fontColor=#FFFFFF;" vertex="1" parent="1">
          <mxGeometry x="340" y="730" width="60" height="20" as="geometry" />
        </mxCell>
        <mxCell id="AnB6w5NlbLwUmc0SfIOT-29" style="edgeStyle=orthogonalEdgeStyle;rounded=1;orthogonalLoop=1;jettySize=auto;html=1;entryX=0.5;entryY=0;entryDx=0;entryDy=0;entryPerimeter=0;endArrow=none;endFill=0;strokeWidth=3;curved=0;" edge="1" parent="1" source="AnB6w5NlbLwUmc0SfIOT-30" target="AnB6w5NlbLwUmc0SfIOT-31">
          <mxGeometry relative="1" as="geometry">
            <mxPoint x="420" y="820.8333333333335" as="targetPoint" />
            <Array as="points">
              <mxPoint x="423" y="780" />
              <mxPoint x="423" y="799" />
              <mxPoint x="423" y="799" />
            </Array>
          </mxGeometry>
        </mxCell>
        <mxCell id="AnB6w5NlbLwUmc0SfIOT-30" value="GND" style="rounded=0;whiteSpace=wrap;html=1;strokeColor=#F3AA2D;strokeWidth=3;fillColor=none;fontColor=#FFFFFF;" vertex="1" parent="1">
          <mxGeometry x="340" y="770" width="60" height="20" as="geometry" />
        </mxCell>
        <mxCell id="AnB6w5NlbLwUmc0SfIOT-31" value="" style="pointerEvents=1;verticalLabelPosition=bottom;shadow=0;dashed=0;align=center;html=1;verticalAlign=top;shape=mxgraph.electrical.signal_sources.signal_ground;" vertex="1" parent="1">
          <mxGeometry x="400" y="827" width="45" height="30" as="geometry" />
        </mxCell>
        <mxCell id="AnB6w5NlbLwUmc0SfIOT-32" style="edgeStyle=orthogonalEdgeStyle;rounded=1;orthogonalLoop=1;jettySize=auto;html=1;exitX=0.58;exitY=0.135;exitDx=0;exitDy=0;exitPerimeter=0;entryX=1;entryY=0.5;entryDx=0;entryDy=0;endArrow=none;endFill=0;fillColor=#f8cecc;strokeColor=#b85450;strokeWidth=3;curved=0;" edge="1" parent="1" source="AnB6w5NlbLwUmc0SfIOT-33" target="AnB6w5NlbLwUmc0SfIOT-28">
          <mxGeometry relative="1" as="geometry">
            <Array as="points">
              <mxPoint x="671" y="640" />
              <mxPoint x="439" y="640" />
              <mxPoint x="439" y="740" />
            </Array>
            <mxPoint x="669.9800000000001" y="665.125" as="sourcePoint" />
            <mxPoint x="399.38" y="700" as="targetPoint" />
          </mxGeometry>
        </mxCell>
        <mxCell id="AnB6w5NlbLwUmc0SfIOT-33" value="" style="pointerEvents=1;verticalLabelPosition=bottom;shadow=0;dashed=0;align=center;html=1;verticalAlign=top;shape=mxgraph.electrical.signal_sources.dc_source_1;" vertex="1" parent="1">
          <mxGeometry x="630" y="695" width="70" height="75" as="geometry" />
        </mxCell>
        <mxCell id="AnB6w5NlbLwUmc0SfIOT-34" value="V" style="text;html=1;align=center;verticalAlign=middle;resizable=0;points=[];autosize=1;strokeColor=none;fillColor=none;fontStyle=1;fontSize=30;" vertex="1" parent="1">
          <mxGeometry x="650" y="710" width="40" height="50" as="geometry" />
        </mxCell>
        <mxCell id="AnB6w5NlbLwUmc0SfIOT-35" value="" style="edgeStyle=orthogonalEdgeStyle;rounded=0;orthogonalLoop=1;jettySize=auto;html=1;endArrow=none;endFill=0;entryX=0.58;entryY=0.935;entryDx=0;entryDy=0;entryPerimeter=0;strokeWidth=3;" edge="1" parent="1" source="AnB6w5NlbLwUmc0SfIOT-36" target="AnB6w5NlbLwUmc0SfIOT-33">
          <mxGeometry relative="1" as="geometry" />
        </mxCell>
        <mxCell id="AnB6w5NlbLwUmc0SfIOT-36" value="" style="pointerEvents=1;verticalLabelPosition=bottom;shadow=0;dashed=0;align=center;html=1;verticalAlign=top;shape=mxgraph.electrical.signal_sources.signal_ground;" vertex="1" parent="1">
          <mxGeometry x="647.5" y="827" width="45" height="30" as="geometry" />
        </mxCell>
        <mxCell id="AnB6w5NlbLwUmc0SfIOT-37" value="CORRECT" style="text;html=1;align=center;verticalAlign=middle;resizable=0;points=[];autosize=1;strokeColor=none;fillColor=none;fontStyle=1;fontSize=20;" vertex="1" parent="1">
          <mxGeometry x="370" y="170" width="120" height="40" as="geometry" />
        </mxCell>
        <mxCell id="AnB6w5NlbLwUmc0SfIOT-44" value="INCORRECT" style="text;html=1;align=center;verticalAlign=middle;resizable=0;points=[];autosize=1;strokeColor=none;fillColor=none;fontStyle=1;fontSize=20;" vertex="1" parent="1">
          <mxGeometry x="370" y="565" width="140" height="40" as="geometry" />
        </mxCell>
        <mxCell id="AnB6w5NlbLwUmc0SfIOT-47" value="" style="shape=image;verticalLabelPosition=bottom;labelBackgroundColor=default;verticalAlign=top;aspect=fixed;imageAspect=0;image=data:image/png,iVBORw0KGgoAAAANSUhEUgAAAQAAAAEACAYAAABccqhmAAAABHNCSVQICAgIfAhkiAAAAAlwSFlzAAAHYgAAB2IBOHqZ2wAAABl0RVh0U29mdHdhcmUAd3d3Lmlua3NjYXBlLm9yZ5vuPBoAAB7CSURBVHic7d15dBz1lS/w7/1Va++WbWQIEAI4w7ywGoPUkhcZtBiCH3gmgRgmgUkG8mAeYcasxkASYhjCHpJA8jKHCZBh4L0BewbeQOIEW7KCF9lqK8ZGNssQ7AAhHrCxrW6pW1JX3flDamFr7aWqf1XV93MO5+hYVb+62Lpf/X7VtRCEp/GcOWWxcmuGsswTTeBoAFVKqSMBVDFQBebpAKoAFA/tMg0ACChmoGLo6x4G+oe+v39o5D6w2geFfQTsA7DPsqyPAewzgD2WMnYHe9Uuam+P5+//VtiNdBcgJscNDYEY9XwBis8g0ExmzADhRDBmAPiM5vL2gLAbjN1geheKtwPq9aBZ9ja1tSU11yYmIQHgMrzwpJJoYmqNUqrOsngmEWYCOBVAie7aMtQHYAcB28G83QI6QqUHttCqd/p0FyY+JQGg2b6FdZUlA1YtW1QP5nkg1AMo1V2XQ5IAtoGwAUzrMTDQFlq39WPdRRUyCYA848WLjd69782yiBcBfBGAs1HY/w7vgvAyEV6qmNb7Kq3Y0T/5LsIuhfyDlzc986uPsQJqEQgXAFgAIKS7JpfqBrCGQauUxS8H2yJ7dBfkdxIADjn4xTlHGP3mRSBezMAFAAK6a/IYC0A7EVbAxHMSBs6QALDR/oZZUw1V/BVivgyERgCG7pp8IglwK5N6PknmyiPWdB7UXZBfSADYoKexrtpS1jXEuDz12bpwTALAS6TweMWaSAsBrLsgL5MAyNL+hllTA1R0KYivA2im7noK1FsMeooGBp6UTxOyIwGQoWhz3alkmTcx0RXw3mfzfpUA8AyU8UhozaY3dBfjJRIAaepeUF2vLLWMgQshf29uxWC0MOHRytbIS7qL8QL5QZ4AL4eKrau5FExLMfh5vfCOTjAeDJ4bWUnLYekuxq0kAMbAAEWbwhcR4W4wZumuR+RkJ0DLg60dK+WE4WgSACPEFoQXsIX7AVTrrkXY6nWA/kGC4HASAEOijeFzifAgA7W6axEOImxispZWrulcr7sUNyj4AOhtqDsuqfheAl8B+fsoGAS8nAzQkqmvdOzSXYtOBfsDz4uqy2M9xq0AL4N/774TE4sT8Gi8r/j7R27YENVdjA4FGQCx5vDlzHgQwLG6axGu8AEIt4RaIs/pLiTfCioAes4761jLNH4K0Jd01yLch0G/KlLmtWVrOt/TXUu+FEQAMECxxvDVIDwMuRVXTKyXQXeHqk54mFasMHUX4zTfB0C0ue5UsPVzAHN01yI8ZQOUcbXfLy1WugtwCgMUbQxfA7YikOYXmZsHy/xdd1PtMl7u3z7x5Qwgev7co8jsf5KZLtRdi/CF1cpI/k3F6q0f6i7Ebr4LgFhj7RdZ8VNgHKO7FuErHzPwTb/dZOSbAOCFJ5XE+qc9Asa3dNcifIsB/kmwKn6LXx5e6osA6G2a81mTkivBmK27FuF/TNhSRNYlfvi40PMBEG0KnwPgOQy+FkuIfPmYGF8Nro206C4kF54+uxltDF8DYA2k+UX+HcmEX3c31S7TXUguPDkD4IUnlcQS054A4XLdtQjBoH8JVfX8Ly+eF/BcAByor59mFPe9AOBc3bUIcYiNbFl/WdnWuVd3IZnwVAAcWBD+vGHhlwBO1l2LEKPRO5ZB/3PK6s3/qbuSdHnmHMDBxuo6w0I7pPmFa/FJyrTauxtr5umuJF2eCIDu5tqLFKm1AI7SXYsQk6giold6mmoW6i4kHa4PgGhj+FJi/ncAZbprESJN5RboxWhzzVd0FzIZVwdArLH2ayA8C6BIdy1CZKgYTP/a3RS+UnchE3FtAESba/6Wif8F8lZd4V0GAU9EG8NLdBcyHlcGQKyx5kYw/QwurU+IDBAIP4o11dygu5CxuO5jwO7GmquI6OdwYW1C5IABXBdqjfxMdyGHclWTxRprv87ET0F+8wt/Yia6urKl4wndhaS4JgCijeGLQXgOsuYX/maCcLlbnkDsigDobq69aOijPjnbLwpBvwJ/qaJ1yyrdhWgPgJ7mcNhitAEo112LEHkUtyzVNKVt8yadRWgNgAPn184wktwO4DM66xBCk72WZc6Z0va7d3QVoO1k28EvzjnCSPIqSPOLwjVdKfUfB+rrp+kqQEsA8OLTitVAcgWAL+g4vhDuQacYxX0v8sKTSnQcXUsAxPaWPwmgScexhXChc6L9Ux/XceC8B0CsKXyLPMlHiMMR09d1XDKc15OA0ea6RrD1CuSzfiHGkgRjQWht5Lf5OmDeAqBnfvUxVrHqlBd2CDGh/zIQqC5vbf9jPg6WlyUAV1cXWUVqhTS/EJP6jEnJlbz4tOJ8HCwvARCbqn4EwDOPSRJCK8bs2CflD+XjUI4vAXqaahZaoF/m41hC+Agz0V9UtnS87ORBHG3K6Plzj0JyYDvkYh8hsvExWZgZbIvsceoAji0BGCAy+5+ENL8Q2TrSIjzFDv6idiwAeprDS5jpQqfGF6IQEOGCWHONY2+8diRZos11p4KtTgClTowvRIGJs2WdXdnW+abdA9s+A+DlUGDrcUjzC2GXMjLUU7zc/n61fcDYb8N/B/nITwh7MWbHXg3/rd3D2roEiC+oPj5pqS4AITvHFUIAALoNS51W3rb5A7sGtHUGYFrqJ5DmF8IplZZh/qOdA9oWALHm8OUMLLJrPCHEaMx0YbSpdrFd49myBPio4bRgmSp/C8CxdownhJjQBz2BvpOPfmV7T64D2TIDKDfK74A0vxD5clxFsnSpHQPlPAMYerDnTsjHfkLkUzyA5CllrVv/kMsgOc8ADJMfgjS/EPlWloRxX66D5DQD6G6smUdE63IdRwiRHSY6p7KlY122++c0A1CkfgBpfiG0Ieb7c9k/6wDobgovYnBdLgcXQuRsbqw5fEG2O2cVAAwQAXdle1AhhH2YcU+2twxnFQCx5ppLAJyVzb5CCNtVRxtr/iKbHTMOgMG7/fDdbA4mhHAGEd2Tzd2CGe8QW1dzKUAzM91PCOGo02Prai7OdKfMlwBMtlyBJISwF4OWZbpPRgEQaww3Azg704MIIZxHjJpoU/icTPbJKAAsws2ZlSSEyCcCbslw+/R0N1SfTErtgKY3Cgsh0sIgdXqoZfPOdDZOu5mVYSzNZHshhBYEtm5If+M0dDdUTyel3ofc9COEFySsosBnp/ym/ZPJNkzrN7oyjK9Dml8IryhV/ckr0tkwkM5GzPzN3OopLGrGnyFQOxf0uRNAxSXg/ftgdm2DGdkETsR1l+dqVFYOIzwbxmkzQdOqwH0JWO//AWbHRli739VdnncQrgbw6OSbTaJ7QXU9WSrr2w0LiTrueJRcdxOM2rljfp8P7Ef/s09i4IXnAeY8V+dyRCj68mUovuIq0JSpY25ibt6Avp8+AuuP7+e5OG+yLDVnStvmTRNtM/kSgOlq2yryMWNWNcp++tS4zQ8ANHUaSq67GaV33gsU5+X1795QXIzSO+9DyXU3jdv8AGDUzUPZT38BY1Z1HovzLsPgSXt3whnAJwuqpxRZ6kMA5bZV5UPq+BNR9pMnQRXBtPcxI+2I37kU6O93sDIPKC5G2d0PwQjPSXsXjkURv+5KWB+852Bh3kdAT1+JOrZq1ebu8baZcAYQsNSlkOafVMmSWzNqfgAwwnNQ9g8/AEpKHKrKAwJFKP3e/Rk1PwBQMISSJXJF+mQYqCjqsya8P2DCACDgMntL8h/1hVNgnFWT1b5GTR3K7nqwMJcDxcUou+dhBGbXZ7W7UV0H9ecn21yUD/HEPTxuAETnn3UkgHNtL8hnsv0BTjHCc1B290OFFQJZTPvHEpgtr6CcDBEWDPXymMafAQQCi5Hmx4SFTB1/Ys5jFNRyIMtp/1jU507MvR7/C3BR4EvjfXP8ACBc6kg5flNiz/VRBbEcyHHaP0pZmT3j+Bzx+L08ZgD0zK8+BsB8xyryET6w37axfL0csGnafyjeP+mVrgIACI3R8+ceNda3xgwAK6AWjfc9cThrx3Zbx/PlcsDGaf+hzK5tto7nYwYnBy4c6xtjNznxQkfL8ZHkxldtv7zXV8sBu6f9QzjeC3PTelvH9DMCxuzpUQHA1dVFADU6X5I/8MEDGFjxf20f1xfLAQem/SkDzz8L7j5o+7g+dh43NIw6qT8qAGJTA/UApuSlJJ/of+YJmK912j6up0PAweY3X+tE/7NP2j6uz02NBqKzR/7hqAAgy8z6LSMFK5lE4s6lMN/osn1oT54TcGjNDwDWf76JxPJlgGnaPrbfkUWjenv0EoBI1v9Z4J4YEsuWwNzpQAjU1KHs7oe9EQKBIpTe9YDta34AsN5+E/GlfweOjntpu5jQ6N4+7GagoSf/fDTyz0X6qCKI0vsfhXHq6baPbW7ZjPidtwB9fbaPbQunm//W68DRqO1jFxC2igLTD31S0OEzAMOohzR/TrgnhsRtBTgTkOb3AqKkedj96ocHALNcXG2DggsBaX7PUCN6/LAAIEACwCaD5wT+3v8hIM3vKTyix4cDgBeeVAJ564+tuLfH3yEgze9FtUO9DuCQAIgOTAkDcMGvFH/xbQhI83tVSbT/iOFf9MMBoNio1VOP//kuBKT5PU2xVTf8deoLC9aZesopDNzbg8TS62Bu32r72HkNAQeb39z5OuI3XyvN7ziamfpqOADokD8UzuBEHInbb/BuCDjc/IllS8C9PbaPLQ5nEc5Ifa0AgBsaAmCcoq+kwuHZEJDm9w1inMaLFxvAUADEEDsZcgIwb4ZDYNvvbB/bkRCQ5vebsujH7/45MBQAREqm/3nGiTgSd9zo/hCQ5vclUsYZQGoJAJymt5zC5PoQkOb3L+bTgeGTgPxnOmspZK4NASebf8d2aX7NmPB5YHgJQCfqLKbQuS4EnG7+266X5teMgBnA8BKAZ+gtR7gmBKT5C8UMACCeM6csVpbsgdwG7ApUWobSex+Bcab9b8Cd9HkC0vyFhINWRbmKlVszIM3vGoMzgZtgbnPgGYMTzQQcb35Z87sMRY3e45WyzBN1VyIOl/cQyEvz99o+tsiNAn9emaSO1V2IGC1vISDNX7AsxjHG7TM+ex4BC3QXI8aQTMJctxbGzLOgjjra1qHVscfB+B+noKjpfATq7H8OjNm1DYnbr5fmdzEFrFeKUKW7EDE+7u0dfNqwEzOB8Bxnntu/Y7s0vzdUKTBP112FmJiTywG7mV3bZNrvEQxMVwyZAXiBF0JApv2eU6UAyAzAI4ZDwIHXkOVKmt+TpisAU3VXIdLHiTjid9zoqhCQ5vesaQpAqe4qRIb6Eq4JAWl+TytRADz46lnhhhCQ5vc8CQBP0xgC0vy+UKwgjwLzNg0hIM3vGzID8IU8hoDZ9Zo0v39IAPhGHkJgsPlvkOb3jxI1+TbCM8wkOObgSzUsHvxP+IYC0K+7CGGDQACl370XgfoGxw5hzDwLpQ88Ciovd+wYIq/6JAD8IA/Nn2KcfiZK7/uxhIA/9CkA4zwfSnhCHps/RULAN2QG4GmBAErvvC+vzZ8iIeAL/RIAXpVq/nnnaitBQsDz+hSAuO4qRIZc0PwpEgKe1qfAtF93FSIDLmr+FAkBz9qnoLBPdxUiTS5s/hQJAU/apwgSAJ4QKHJt86dICHjOPgXL2qu7CjGJQBFK77zX1c2fIiHgHUTYqyylZAbgZoEilH7Pmd/85vatMLdvtX1c4/QzUfr9H4JKy2wfW9hqn4IsAdwr9Zt/7jm2D212bUPi2zciftv1jtxAJJcNu5/F2KcMy/qT7kLEGByc9h92P7+DdxHKcsDdFGGPspSxW3chYoR8NX+KhEBBskDvqmCv2gVA7vF0i3w3f4qEQKHhkFn+nqL29jiAj3RXI6Cv+VMkBArJh9TWllAAQKDdmosRups/RUKgMDDtAgYfCAIG79JbTYFz8qO+bB7g6XgI/EhCQDMm3g0MBQDAv9dYS2FLNb9TH/Vl+wBPR0NgloSAZgT6PZAKAEKX1moKlVubP0VCwL/I6gKGZwDGdp21FCQnm3/Hdvse3S0h4EsMtR0YCoCgWfY2gITWigqJ081/2xJ7H90tIeA38dARJ3y6BKC2tiSAnVpLKhRea/4UCQHfYKCLVqwwgeElAECALAOc5tXmT5EQ8AXFPNzrn74Y5JA/FA4IFKF0+f3ebf4UCQHvU/T68JepLyyizXqqKQCp5p8z3/ah89r8KRICnmZa1qbU18MBECrZ3wk5EWg/x5tf04s6JQS8Kl45PTH8EIhPzwGseqcPQP5fNO9neWn+HtvHTpuEgBd10Iodw68COOzloMS8If/1+JSTzb/zdf3NnyIh4C1Mh/X4YQFgARIAdnC6+ZctcUfzp0gIeIaCNX4AgHkj5NkAuQkUofSuBwqn+VMkBLzAGhgobT/0Dw4LgMq2zr0Avw6RnVTzz663fWhXN3+KhIDbbZ26fv1hLwJSI7cg0Kr81eMjhd78KRICbjaqt0cFAPPojcQkiFD6nXuk+VP6Ekh8+yaHHjk+C6XfvRdQo350xSQ4nQAIcsUGAAfzUpFPFC2+HIH5jbaP68nmH8KJOBK33+BMCNTORfFXv2H7uD63P2RVdIz8w9FLgMEbg1rzUpIPUEUQxZdfafu45s4uzzZ/ipMhUPRX3wBVTrF9XB9bPdTbhxlzHjXWVEGMzZh7DigYsnVM6+03kbjDJZ/z54gTcUdePkLl5Z54VZpbjNfTYwaAsvASANPRinzCOP1MW8czd3Yhfsu3wNGoreNq5dA5AWPm2baO52NJChT9aqxvjBkAwbbIHoBfdbYmf6Ajqmwby3yja/DGnp6YbWO6hRPLAZo+3bax/I1bQ69sHPPR/+OfSiU851g9ftLfP/k2abDefnPwMV4+bP4Uu5cDnJB719LBPH4vjxsAbPK/ARh10kAczvrwg5zHMN/w4bR/PDYuB9iGv/sCMMDFRS+O981xA2DwqkCsdaQkHzE3b8xt/zeGzvb7+Df/SHYtB5Id7ZNvVOAYtHrKb9o/Ge/7E15NwUSyDJiE2fUazJ3ZXT1dCNP+8eS6HLB2vQPzdxGbq/IfRXh+wu9P9M0kmSsBaHjahLf0PfYQ0NeX0T7mmzsKZ9o/nmyXA8kB9P3wfoAtZ+ryDYr1FdMLE20xYQAcsabzIDNW2FuU/1hvv4nE/d9L+4Sgua0TiVv/viB/8480vByIbJp8YwBIDiDx8Pdh7pBHWE6O/7Vq1ebuibZI44Jq/ie7yvGz5Kut6L3hGlhvvzn+Rn0J9D/7FOLS/IfhRBzxO25A/y8eB8fHn3Ba776D+E3XIrl6zI+0xQgWWz+fbBtKZ6BoU7gLwGk5V1QIiGCcVYNA3TzQcceDSkrBn+yF2bUNyfVt4E/26a7Q1WjqNATqG2CcMQtUdSS4LwH+8AMkN2+A2RmRaX/6Xg+1RmZOtlFaARBrrLmRiR7JvSYhRH7QklBrx2OTbZXWPZWWUk9DnhgshFfErSLj2XQ2TCsAKls69gF4JqeShBD5wfT0RJ/9Hyrtpyow88MAZAEmhLsxDPXjdDdOOwAq1255iwA5/SqEq/H/D63Z9Ea6W2f0XCVW/IPMCxJC5EumPZrWpwCHijWFNzNQm+l+QghnMRCpbI1k1JsZP1mRGTILEMKFiHF/pvtkHADBcyMrAWzLdD8hhKNeD54bGfe23/FkHAC0HBYYd2e6nxDCOQx8m5Zn/ildxucAhg5G0abwZgLC2ewvhLAPE7aEWiK1lMVr/bJ6uwIBzEx3ZbOvEMJeitW3s2l+IMsZQEq0OdwOxuxcxhBC5IBpfWhtR9Zvos3p/UrMuBnyNmEhdGE2zNtzGSCnAKhsjWwET/zIISGEMxj0TOWazvW5jJHzGxYNVrdAHhsmRL71FinzO7kOknMAlLdt/gAkFwcJkWf3la3pfC/XQWx5x3KwN3AfgJyLEUKkgfF+sMKy5QE9tgQAtbfHQbjVjrGEEBNjouvppU5blt05fQw4UrS59kUw/6WdYwohPkXAy8HWyCK7xrNlBjA8mBr4FoCDdo4phBjWrRD433YOaGsAVKze+iGIv23nmEKIIYyl5a3tf7RzSFsDAACC87f8DEw5fTYphBjl1eDaiO3v6LA9AGg5LBjqGgBxu8cWokD1MvM12V7vPxHbAwAABp9JRsucGFuIwkM3V67d8pYjIzsxKDB4y3BPU/g/GLjIqWMI4XcMrAq1Ri504rc/4NAMABi6ZXggeRWAPU4dQwif+0iRutKp5gccDAAACK3b+jERroTcMShEpthiuirYsvm/nDyIowEAAMGWyK8B/onTxxHCT5j5h1PWdvzS6eM4HgAAEDzINwNYl49jCeEDG0PT4znd558ux04CjhRrCB/NCp0Ajs3XMYXwoD3KSFZXrN76YT4OlpcZAAAE2yJ7GFgMoD9fxxTCYwaY6NJ8NT+QxwAABp8gRGC5PkCIsTBuqGzpyOtSOW9LgEN1N9U+TeC/1nFsIdyIgKeCrZGr8n3cvM4AUkIHzW8CaNFxbCFc6LcVJfuv1XFgLQFAnZ0DA8q6BECXjuML4SI7zf6SL9Oqd/p0HFzLEiBlf8PsEwPK3ATgMzrrEEKTPQEkZ5e1bv2DrgK0zABSprVt2q0suoiAHp11CKFB3GLrSzqbH9AcAABQ0daxBcRfBqBlCiSEBv2K+StT1nZu1l2I9gAAgGDLltVM9FcAkrprEcJhJkBXVKzd8ivdhQAuCQAAqGzpeHHoxqGMX3EshEdYRPhGqLVjhe5CUlwTAAAQbIk8w8xXQ+4eFP7DAF0XbIk8q7uQQ7kqAACgcu2WJwl8EyQEhH8wEW4MtXb8o+5CRtL6MeBEoo3ha0D4GVwYUkJkgAG6PtTa8ZjuQsbi2gAAgFhTzVcZ9DSAgO5ahMiCSUTfDLZ0/LPuQsbj6gAAgO6m8CICngdQqrsWITLQD+avhdZu+TfdhUzE9QEAAD1NNQst0EoA5bprEWIyBPSA6ZLg2o7f6K5lMp4IAADoaQ6HLcZLkMuGhbvtURYtqmjr2KK7kHR4JgCA4XsHfgngVN21CDGGHQEkL9R9eW8mPHWGfVrbpt1Ja2AewGt11yLECK1Ja6DeS80PeCwAAGBa22sHglXxC5jh2jOrorAQ8FTwoHXBtLbXDuiuJVOeWgKMNHStwGMAinXXIgpSkkHfqWzteEB3IdnydAAAQHdjzTxStAKMY3TXIgrKhwwsrmyNbNRdSC48twQYqXLtlg0wimbJeQGRN0zr1YBV4/XmB3wQAAAQemXjR8Gq+AUgPAq5h0A4h5n5kWC32VSxrvNPuouxg+eXACPFmmvOY6ZfQF5AIuz1kcV0VT5e15VPvgsAAIjOP+tIKgo8wcAi3bUIHyD8hkz8TbAt4rs3XfsyAFJijbVfB/H/YaBCdy3CkxJEuK2iJfKok6/o1snXAQAA3Q3VJxMZ/wTiet21CE95lYmurmzpeFt3IU7yfQAAgzdkxxrDV4PwEIBK3fUIVztIhO9VzI88Rsv9/3i6ggiAlJ751cdYxeoxMC7RXYtwHwJeVgF8q/yVyPu6a8mXggqAlGhT7WIw/wCEz+muRejHoD8AuLGyteMF3bXkW0EGAADwnDll0TJzCQHfATioux6hRS9ADwXjxgPU3h7XXYwOBRsAKb1Ncz6bhHkfga+A/H0UCgawMoDkUq/dvWc3+YEf0t1YM4+IHgQwV3ctwkFM61nh1sqWjnbdpbiBBMAIsQXhBZaFewkI665F2IeADgu4p7I18pLuWtxEAmAcsQXhBWzhAQBn665F5KQLoLuDrR0r/XoxTy4kACbAy6Fi62ouZqZbZUbgLQTazMwPBtdGXpDGH58EQJq6F1TXk6WWALgYgKG7HjEmi4BfQeHHwTWRNbqL8QIJgAx1N1SfTErdBOCvIe8qcIsECE+zxY9Urt3ylu5ivEQCIEufLKieUmSqy6BwLRizdNdTmPgNhvpnWOYTlW2de3VX40USADboaayrtpR1DZi+JhcVOS4B4CVSeFym+bmTALDRvoV1lUV91sVgXEaEZgBFumvyiQEGrVaE5+OJon8/csOGqO6C/EICwCEH6uunBYr6F4F4MQNfhIRBpkwAm4iwgo2i/xd6ZeNHugvyIwmAPIieP/coHui/iIguAHAegKm6a3Kp/QBWM/BrGki+HFq39WPdBfmdBECecUNDIBqIzibTWAjiCwCchcL9d7AAbAX418xYFZo+YxOtWGHqLqqQFOoPnmt8PG9eqKysv44tqgfzPBDmASjTXZdDBgBsB2EDmNYzobWypWOf7qIKmQSAy/Di04qjn1RUK7bqQOoMZj4Tgy9D9VooxJmwQ4G2A7zdAnWEjujppBU7+nUXJj4lAeABvHixEd276yQiNRPMpzPh8wTMwOB/x0DfvyMD+BOAXQzsItDvAexgwrbQESf8Xqbz7icB4HHc0FAapdgJStEMi3G0IlSBMR3MRzKhCqAqANMAlA/tUgnAAKjo02sWKAbwAAbPvHcPbdcD4ADA+wDaS8BeEPZajH2KsMeyeFeo9MBuWvVOX37/j4Wd/hvSYnRu9WPv9gAAAABJRU5ErkJggg==;" vertex="1" parent="1">
          <mxGeometry x="560" y="560" width="50" height="50" as="geometry" />
        </mxCell>
        <mxCell id="AnB6w5NlbLwUmc0SfIOT-48" value="" style="shape=image;verticalLabelPosition=bottom;labelBackgroundColor=default;verticalAlign=top;aspect=fixed;imageAspect=0;image=data:image/png,iVBORw0KGgoAAAANSUhEUgAAAQAAAAEACAYAAABccqhmAAAABHNCSVQICAgIfAhkiAAAAAlwSFlzAAAHYgAAB2IBOHqZ2wAAABl0RVh0U29mdHdhcmUAd3d3Lmlua3NjYXBlLm9yZ5vuPBoAAByRSURBVHic7d17fFT1mT/wz/M9k0kIICCgEuwF1wsqIhUvbMEWW1pIJpOZTEj8tbq26sL+bPfVq5e22742ba26trW7tvvrbr3Q2vb1WxMyk0wyCV6qtKJ4rRUB66WVWgsRSClySTKZOc/+QQKB3OZyzvmemfO8/2lKznzPB8nzyTlzOYcgClp9U/2kg/7kPCOF97Pi0xiYqUCzGTQTwEyAZw3+r//II2gGAIDhB2Hy4NeHQEge+T7vG9yuH+AeQPUA6CFwjwneQ0APmdSd9mHHlKT/zeaG5l5H/8LCUqQ7gJjY8seX+6b2TD3HVHQBs1pIxPMIeD8D8wCcqjleNwE7GNgB4I/E2JI28HLvtP2vbbxiY0pzNjEBKQCXqeysLEVvycUG4TKGWkjEC5lxHoBS3dmy1A/QNjBvYcIWZn4Wkwae76rq6tcdTBwjBaBZZWflSarXfymBlrHipWAsA1CmO5dNUgBeIuBJBm8yU6Ubuxqa9+gO5WVSAA6rb6o3DpcMLCITQSauBnARPP3vwH8kUAcz2svT/t80NzQndSfyEg//4DlnZUtkjk+ZQTCvArACwFTdmVzqXYAeZeYupAc6Ohs6u3UHKnZSADZZ2VR/cokvWQ1wPYNWAfDpzlRgTACbibjZHEg9KGVgDykAC4Vj4elJk1eTwpVgXAHA0J2pSKQYeIyImvoHStY/2tC8X3egYiEFYIFALLwYprkWoKuOvrYu7NIHUDuYf5KItP0KBNYdqJBJAeQoHAtPHwAamPmzBCzUnceLCHiVgXVmyn+/vJqQGymALFW2hs5Taf4SiK5G4b02X6z6CPgFQ92ViMRe0R2mkEgBZCgYrV3GSN/CoADkv5tbMQi/IsLdHeG2dt1hCoH8II+jsbFRPbfwtw2Augngi3TnEVl5gYnuvPSlResbGxtN3WHcSgpgNAyqbgtVs4lvAVikO47Iy3aAGxO18fXyhOFIUgAnCLSEVoBwB4DFurMIS70M8LelCI4nBTAoGK39sAnzTgCX6s4i7EPA0wR1U3sktkl3FjfwfAFUtkRON1T6NmZcDfnv4RkE7iAff669pv1N3Vl08uwPfLA9WM5J42YmvgXF++k7Mb5eAHcbBn8nHoof0B1GB08WQHW05ioG3QmgQncW4QpvE+PGjrq2B3UHcZqnCqCmraYilaL/JEJYdxbhQoRONWDe0N7Q/pbuKE7xRgEwKNAaXgPm70E+iivGdxjAt8pT/u81NzSndYexW9EXQGVr6Dxl4l4Af687iygoTwJqTbG/tbh4P67KoMCi8FpitAA4Q3ccUXDeC/D1Z185P3XVuZ/YvHHjxqJ870BRHgF8PFp7SgnM+wEEdGcRxYAeMQzz0/FQfKfuJFYrugIIrA+thMI6AHN0ZxHFhPeQouuL7UNGRVMAlZ2VparffxcYn9GdRRQtBuFH5QP+G4vl4qVFUQDVTdVz4TPWM7BEdxbhAYTn1YBZVwwvFxZ8AVS11HyIiB4EcJruLMJLeA+R+kRHbeuvdCfJh9IdIB+BWHgtET0KGX7hOJrNzBsC0dAtupPkoyCPACo7K0tVn/8+AFfpziIEEX4+acD/j4X4vEDBFUCgIzCDk0aMQB/WnUWIoxhPKb8Zag+279UdJRsFVQCBlrozQKkEgPm6swgxAuMN4nRVx+qO13VHyVTBPAdQ1Rq6jCi1GTL8wq0IZ7IyNle21CzVHSVTBVEAVdHaajLxOAOn6M4ixARmKqKHK2PhSt1BMuH6AqiKhRsIZhTAJN1ZhMhQuWJurW4JrdYdZCKuLoCqltAnifmXAEp0ZxEiS34m/E91NHSt7iDjcW0BVLWE/okIP4fcVVcULoOB+6qioc/pDjIWVxZAVTT0RSL8GC7NJ0QWiIB/D7SEv6A7yGhc9zJgIFpzHUD3woXZhMgDg+izidrWH+sOMpyrhqw6GrqGgXWQ3/yiODGI1iRqW+/THWSIawogEK2JAPQg5JxfFLc0Ma5yyxWIXVEAVdHa6sGX+uTZfuEFSZMo3FXb2qU7iPYCCLYELzFJbQRQrjuLEA7qNdn8SFdd+9M6Q2gtgGA8OM9Mqc0ATtWZQwhN9hoG/308FH9DVwBtT7atbKo/mVOqCzL8wrtmpdMUD3QEZugKoKUA6pvq/SW+gWYGztGxfyFc5Fwkfa2VnZWlOnaupQAO+5L3M/gjOvYthAt9iPr8P9GxY8cLIBAN3Qi5ko8QxyHgGh1vGXb0ScBAS80VIHoY8lq/EKNJKagV7ZHYr53aoWMFsLIlMsdH6RcgN+wQYjzvUCq9uKOh4y9O7MyRU4DF/722xEfpZsjwCzGRU+Ez1tc31fud2JkjBXDaKe/8O4CCuUySEDoxsKTXl/yuE/uy/RSgMhauVMwJJ/YlRBFhhqrpjMQ67NyJrUM5eJfeLZA3+wiRA97DqdTCzobObrv2YN8pAIMGb9Etwy9ETmg2+UrWge37RW3YtXD1oprPA+TaSyEJUSDOPOv38/e8/uCrz9mxuC3NUtkaOk+ZeAFAmR3rC+Exvco0L2pf3f57qxe2/BSgsbFRKRM/gQy/EFaZxEqta2xstHxeLV/w2YUv/jPkJT8hLMXAkucu/N0/Wb2upacAwabge02f2gpgqpXrCiEAAO+abJzfVRd926oFLT0CSBvqR5DhF8IuJylK/5eVC1pWANXRmquIELRqPSHEqAKBaE29VYtZcgpQ31Q/5bAv+SqACivWE0KM6+2Byb3zH1758KF8F7LkCOCQMfA1yPAL4ZTT/QfLb7JiobyPAAYv7Lkd8rKfEE7qZTbO7ayL/imfRfI+AuAB9V3I8AvhtElEqdvzXSSvI4DKlpqliuiJfNcRQuRI4UOJcNsTuT88r33T9yHDL4Q+adyRz8NzLoDq1lAQhMvy2bkQIk+ED1ZFa1bl+vDcCoBBYHwz150KIaxDoFtz/chwTgVQHQ3VMeMDuTxWCGG5xVWxYE0uD8y6ABobG5VJ+EYuOxNC2IOgbs3l04JZP+C5hb9tIGBhto8TQthqwfMXvBjJ9kE5nAIoS96BJISwFivcku1jsiqA6lj4owBflO1OhBAOYFxc1VLzoWwekt0RAJtfzmp7IYTD6Masts50w+D64HxTqW3QdEdhIURG2FRY0BVu257JxhkPs6mMm7LZXgihBSkTX8h440w2CrYHZ5kD6s+QD/0IUQj6Uin/3Icamv860YYZ/UbnAboGMvxCFIoyw5e8OpMNMysA0PX55RFCOImANZlsN2EBBKO1ywCcl3ciIYSTFlS2BJdMtJFvog3SMNfI531FISk1SnHh7IWomDIHZb4y7Ovbh217t+Ptg3/RHc1Riow1AJ4eb5txZ3tFU/20Ul9yJ4ByK4MJYYdyXzmunF+PwBmVKDNGPmX12r7XsW7rz/Dy3q0a0mnAOGROSlZ0VXW9O9Ym454ClPn6GyDDLwrAnMmn4fvL70TdWbWjDj8AnD3jLNy27NuoP3u1w+k0IUym/tJxPx8wbgEw6EprEwlhvYopFbjj8u/gPVNPn3BbIsKnzr8awb8LOJBMP2Ied4bHPAWobKqfrY4c/k/4PIEQusydUoHbL78VJ5ednNXjUmYaNzz6z9h1aJdNyVwjZab8FV0NzXtG++aYRwDKSNZDhl+4WK7DDwA+ZaDhnDobUrmOz/D1h8f65pgFwMQN9uQRIn/5DP+QJXMug6Lif3c7E405y6P+7Ve2ROYQ6HL7IgmRu4opFbht2bfzGn4AmOqfitmTZlmUysUYV3w8WnvKaN8atQB8ygyO9T0hdJo7pQJ3XH4rZk6aacl6U/2euJm14Yc56rOeow45m1xpbx4hsmfVb/7h3k2O+RJ5UWHQqDM9ogAW//faEiJcYX8kITJXMaUCty/7tmW/+QHgQPIg9vb2WLaeu/HHlj++fMST+iMK4LRZ3csATHMkkxAZsPqwf8jmXU/DZNPSNV1s+tR9M0Z8NmBEATCQ811GhLCaFc/2jyZlptD86npL13Q7E+aI2R5RAESjnysI4TQ7zvmH3PPyfdh1qNvydd1t5GwfVwDB9uAsAAscyyPEGOw67AeA6OutSPyxy/J13Y8/sLKp/rg2Pf4IIGUsg9ztV2hm52/+1jfacP/Wn1q+boEgw5f64PA/OK4ATOalzuYR4nh2PNs/pPWNNtz78jrL1y0kCubS4///8aQAhDYy/PbjE2b86OF+ZWdlqerz7wdQ6ngq4Xky/I7pN8uS07qquvqBYUcAvr6ySyDDLzSQ4XdUqdFXdvT2fkcLgJG+VE8e4WUy/M5j5suGvj5aACboQj1xhFfJ8OvBxAuHvj5aAAQsHH1zIawnw68PES4Y+loBwOCHBM7Vlkh4igy/Zozz65vqDWCwACbvmzEf8gSgcIAMvytM6lN9ZwGDBcBsyuG/sJ0Mv3uYii4ABguACOfrjSOKnQy/29ACYOgIgPB3esOIYibD70Z8BjB0BGDi/VqziKIlw+9WNA84dgowT28YUYxk+F1tHgBQfVP9pMO+5CHIx4CFhWT4XY8P7d9frg76k/Mgwy8sJMNfEKh82oz3KiMl5//COjL8hSR9hjIJFbpjiOIgw19YFGiOIoL1/1rCc2T4Cw8DMxVBCkDkR4a/MBEwU5mAB+6OKOwiw1/QZskRgMjZXBn+gsbATB8Ys+RFwGMWnXIhlr/nwzh/5rmYXjodfak+7DrUjWe7n8NDOx7GgeRB3RFd4fQpc3Hb5fZcujv6equXL93tpFkUiIa2AThPdxLdppdOx40XfxGLThn7wkiHBg7hni334dG3HnMwmfvI8BeNrQrgMt0pdJs1aRZ+sPy74w4/AEwumYwvLP4cPn3+NQ4lcx8Z/mJCpQogv+4YOhlk4OtLvorZ5bMzfszqsyO4bsGn7QvlUjL8RYa4VBHg6QJY8b6P4szp2X8aOnJWGP94wXU2JHKnuVMqbBt+j9+uSx+GX7HHLwVWNW9lzo8Nn1njiRKw6xbdgDzbr1mpgoePAKb6p+CM6WfktUb4zJqiPh04fcpc24Y/+nqrDL9e3i6AWZNmgSx4DbRYTwfksL/olZ54c1BPYQvXKrbTATns9wYFIKk7hC49vXvBFtZAsZwOyGG/Z/R7ugAOJA/ijX1/sHTNQj8dkMN+T+lXBPTrTqHThh0PWb5moZ4OyGG/5/Qr9vARAAA8+qfH8Pq+NyxfN3xmDa5fcK3l69pFDvs9iJBUAHu6ANKcxneeuR1/7fur5WvXnhUqiBKQd/h5FFO/AqhXdw7d9vb24CtPfB09vT2Wr117VsjVpwNyzu9l3K8A3qc7hhvsPLgTX930DVtKwK3PCcg5v7cxuEcByvqf+ALlpRKQ4RcE1aMASAEM44USkOEXR3CPYjb36o7hNsVcAjL8Yggz7VVKySnAaIqxBGT4xXAE9CiWU4AxFVMJyPCLE7FCj6I079IdxM2KoQRk+MWo2OxWaR926M7hdoVcAjL8YmzGH9WUpP9NWPvJ2KJUiCUgwy/GwYf373vL2N68PXX2lfNvADBFdyK3O5A8gGe7n8cHK5agvKTc0rXnn3wOykvK8dvdL1qyngy/mMDORz750J1HLgjCchqQqUI4EpDhFxPjN4EjFwQBCG9qzVJg3FwCMvwiQzuAoQIArL0qhge4sQRk+EWmiNUfgKMFwFt1hilUbioBGX6RnSMzrwDAVLRFb5jC5YYSkOEX2TJJbQEGC6B32v7XAPRpTVTAdJaADL/IQe/klO/YKcDGKzamANquN1Nh01ECMvwiFwza2tzQnAaOPQkIMMtpQJ6cLAEZfpErYvPorB8tACZIAVjAiRKQ4Rf5IIWXh75Ww/7wGT1xis/OgzvxtU3fsOVCo+Eza3D3R34gV+8VOTOJnh76+mgBmP7kC5AnAi3zl4M7bbvQaKlh/Q2d5QKentE7Oek/+n7zowXQVdXVD+AFLZGKlJ2nA1aSw37vYPCzzQ3NR28FcNzNQZn5SecjFTe3l4AMv7cQ6LgZV8d/E1IANnBrCcjwew+ZGLsAlJ+fglwbwBZuKwEZfk8yuSy1efgfHFcA7cH2vYxjLxEIa7mlBGT4PevFRHXiuBsBqRO3IKDLuTzeo7sEZPi9i5hGzPaIAlBQUgA201UCMvzexgZPXAAHZux7EsB+RxJ5mNMlIMPvefsOTdv/7Il/OKIAjnwwCI85EsnjnCoBGX4B8CODs32cEQUAAISRhwrCHnaXgAy/AACm0U/tRy0AM5VqB5C2NZE4yq4SkOEXg1Ipps7RvjFqAXQ2dHYD+I2tkcRxrC4BGX4xhIHHHo7Edo/2vVELAACY8aB9kcRorCoBGX4xHIHHnOUxC8Dwmy0ARjxpIOyVbwnI8IsTDKRSpa1jfXPMAmgPtu8F6HF7Monx5FoCMvxiBMIjDzU0j3lhijELYPDBchqgyc6DO3HLE1/DW+++NeG2zIyfbfu5DL8YiblpvG+PWwD9AyXrARy2NJDIWPehd/ClX9+M//l9E3pTvaNus73nFdzyxNfQ/FqLw+lEATholg3ExtuAJlohEA3/FOBPWRZJ5MRv+HH+zPNw+tS58Cs/9vX/Ddv2bsc7h9/RHU24FAH3dkTa1oy3jW+iRUw271FEUgCaJdNJvLj7d3hx9+90RxEFwlS4d6JtJjwCAIBANLQVwPl5JxJCOOXlRKRt4UQbjf8k4CAG7ss/jxDCMUz3ZLJZRgVQCvUA5IrBQhSK3lS65JeZbJhRAcQisR4CfpFfJiGEQx4Y77X/4TIqAABIGfw9AGbOkYQQTmBA/UemG2dcABtC8VcJPOonioQQ7sCMtkQk9kqm22dcAAAAUt/POpEQwjFGljOa0cuAwwWioWcAXJrt44QQ9mLQc52R1qxmM7sjAABMJEcBQrgQwbwj28dkXQCXvrRoPcAvZfs4IYStXr5ky0Vjfux3LFmfAgBAIFoTAUg+fSKES5BCTUe4rT3rx+W0NwZVxcLPEPiSnB4vhLAO4flEuO1SUPa39cv6FGBwh0xsfjOnxwohLKVA/5LL8AO5HgEMqo6GNjOwJJ81hBD54E2JSPzyXB+d2xHA0K4Vvgy5m7AQurCC8dV8FsirABLhtqeYMO4lh4QQ9iDCL9ojsU35rJFXAQAAm8aNkMuGCeG0wzRgfj3fRfIugK666NsgljcHCeEgJr69vaF94ivGTiDvAgCA8oHS20HIO4wQYmIM/Nnw8V1WrGVJATQ3NPeSiZutWEsIMT7F+Hx7sN2S0+68XgY8USAabgU4ZOWaQohjCNzREYkHrVrPkiOAIYZhfgbAfivXFEIc9S5S5v+1ckFLCyAeiu9k4F+sXFMIMYjopo6Gjr9YuaSlBQAAl275wI8Bzuu1SSHECL9JhFszutJvNiwvgMbGRhMw1gIY/V5WQohsHU4bvDbX9/uPx/ICAIBEJPYKmG6xY20hvIbAX94Qir9qz9p2YVB1rCbOoGrb9iFEkSNwV0dtPGDHb3/ApiMAAACB06nS6wB027YPIYoYAbuVgWvtGn7AzgIA0NXQvIfB10I+MShEtpiZr4uH4rbe/tnWAgCAzkh8Awg/sns/QhQTBv0gURdP2L0f2wsAALp3n/plAE84sS8hCh7jqcmpkrw+558p+54EPEFVU9Vp5Ct5AUCFU/sUogB1GwYvjofiO53YmSNHAADQ2dDZDYV6AEmn9ilEgRmAQoNTww84WADAkSsIyfsDhBgD4wuJcJujp8qOnQIMVx0LPcCMf9CxbyHciIF1nZG265zer6NHAEN27T71egC/0rFvIdyGwb/msuQNOvat5QgAAFY01U8r9SU3AVigK4MQLrAd/tSyRHVin46daysAAFgVC7/fYH4awKk6cwihSTezsaSzLvonXQG0nAIM2VDbuoNNrgbjkM4cQmjQywphncMPaC4AAOhcHX+eiWsB9OvOIoRDkmRidWe47RndQbQXAAB0RuKPKKL/AyClO4sQNksDfHXH6rZO3UEAlxQAALTXtraC+FoApu4sQtjEJPCnEpF4s+4gQ1xTAACQqI3/AuA1kE8PiuLDBP5sRyT+S91BhnNVAQBAIhK/H0xfgpSAKB5MxF/siMT/S3eQE2l9GXA8gVh4LZh/DBeWlBBZYDB9PlHX+kPdQUbj2gIAgKpY+BPE/AAAn+4sQuQgDfD1iUj8Z7qDjMXVBQAA1a2hIJtoAlCmO4sQWUgy0Sc7a1tbdAcZj+sLAAAqY+FKxbweQLnuLEJMiHEIjLrE6raHdEeZSEEUAAAEW4KXmKTaIW8bFu7WzSYHO1fHn9cdJBMFUwDA0c8OJACcpzuLEKPYxmwEdL+9NxsF9Qz7htrWHSVESwE8rjuLEMMR6LESomWFNPxAgRUAALTWtv6tPOVfBZBrn1kV3sLAul17TlnVWtv6N91ZslVQpwAnGnyvwA8B+HVnEZ6UAvD1RKTt33QHyVVBFwAAVLbULFVEzQDm6M4iPGUnFOoT4bandAfJR8GdApyoqy7+5ADUIsjzAsIxvCnFxsWFPvxAERQAADwcie0uT/lXEXA35DMEwj7MoLu695z2kYfqort0h7FCwZ8CnKgqWvMxAv0UcgMSYSECdjPzdU7crstJRXEEMFxnJP6ImfIvYka77iyiSBAeMlMDFxbb8ANFeAQwXHU0dA0z/h8Ik3VnEQWpj4i/0hGO323nLbp1KuoCAIDg+uB8U9E9AC3TnUUUlN8w1JrOSOw13UHsVPQFAABgUKA1vAbM3wVwku44wtX2E/G/XvzSRT9sbGws+svTeaMABq1sicwpQfqHTKjTnUW4D4E7DEWfaQu3/Vl3Fqd4qgCGBKI19Qz6PgHv0Z1FuMKfiPHFjrq2mO4gTiu6VwEykYjEmyen/OcA+AqAg7rzCG0OE9M3y1P+c704/IBHjwCGq26qnosS43ZmXA357+EVDNB6ZnVToX16z2ryAz+osqVmqQLdCcIHdWcRduJNBOPmjkhss+4kbiAFcIJAS2gFE91G4Et0ZxGWepYUbu0It8kbxIaRAhhDoCW0AkT/BvBFurOIvGwF+FuJ2vj6Yn0zTz6kAMbR2Nionr/gxYhJdLMcERQYxjMgvjNRG4/J4I9NCiBDwWjtMhP8OYAjAAzdecSoTAJ3MtN/JOraHtUdphBIAWTpyFuL1ZcA/APkXgVu0QfmB9I+3LUhFH9Vd5hCIgWQoxVN9dNKSwauBPMNABbpzuNRrwD4mSox72sPtu/VHaYQSQFYIBALL4ZprgXRJwFM0Z2nyPUB1A7mn8hhfv6kACxU2Vl5EvWXRoj5SgAfBVCiO1ORGADhETA3GQai8VD8gO5AxUIKwCaBjsAMSvqCANczaCWkDLKVBvA0ETcn2fj/D0diu3UHKkZSAA74eLT2lBKkqwG1CuCPAZiuO5NL7QP4EQJtSKf8HV0NzXt0Byp2UgAOW/74ct/UfTOWmDArAVoF8Afg3X8HE8CLADaYzF1T0qVPNzc0p3WH8hKv/uC5Rk1bzdR0ii4j0DJWvBSMpQAm6c5lkwEAWwh4ksGb/DAei0ViPbpDeZkUgMvUN9X7e32pxcx8GQgXAHwhjtwMtdBKoReEbWDaQmRuARvPTkr5XmhuaE7qDiaOkQIoAPVN9caB0v4zjTQWArQA4DMAmgdgHo7cEUnXvyMD2AXgTYDfJFZ/YDK3MYyXJqd8f5DDefeTAihwy9ctLys7+aT3qTTmgdRpZGImEc9i5tkMmkmEmQBmAFx+5BF0Eo68lbkEx96zcBBHDs/TAL87uN0hAH9jRo8i7AWwl5n2skIP2Ow2DbxJJQM7uqq6+h39CwtL/S8WdLRp6Dg6cgAAAABJRU5ErkJggg==;" vertex="1" parent="1">
          <mxGeometry x="562.5" y="163.5" width="53" height="53" as="geometry" />
        </mxCell>
      </root>
    </mxGraphModel>
  </diagram>
</mxfile>
